<?xml version="1.0" encoding="UTF-8" standalone="no"?>
<!-- Created with Inkscape (http://www.inkscape.org/) -->

<svg
   width="85.599998mm"
   height="53.98mm"
   viewBox="0 0 323.52756 204.01889"
   version="1.1"
   id="svg5"
   sodipodi:docname="logo.svg"
   inkscape:version="1.1.1 (3bf5ae0d25, 2021-09-20)"
   xmlns:inkscape="http://www.inkscape.org/namespaces/inkscape"
   xmlns:sodipodi="http://sodipodi.sourceforge.net/DTD/sodipodi-0.dtd"
   xmlns="http://www.w3.org/2000/svg"
   xmlns:svg="http://www.w3.org/2000/svg">
  <sodipodi:namedview
     id="namedview8"
     pagecolor="#505050"
     bordercolor="#eeeeee"
     borderopacity="1"
     inkscape:pageshadow="0"
     inkscape:pageopacity="0"
     inkscape:pagecheckerboard="0"
     inkscape:document-units="mm"
     showgrid="false"
     inkscape:zoom="0.48373005"
     inkscape:cx="159.17969"
     inkscape:cy="273.9131"
     inkscape:window-width="1920"
     inkscape:window-height="991"
     inkscape:window-x="-9"
     inkscape:window-y="-9"
     inkscape:window-maximized="1"
     inkscape:current-layer="text3662" />
  <defs
     id="defs2">
    <rect
       x="8.2690748"
       y="-4.1345374"
       width="314.22484"
       height="202.59233"
       id="rect3664" />
    <rect
       x="-2.5494685"
       y="0.5098937"
       width="313.58463"
       height="193.75961"
       id="rect2937" />
  </defs>
  <g
     id="layer1">
    <text
       xml:space="preserve"
       id="text2935"
       style="font-style:normal;font-variant:normal;font-weight:normal;font-stretch:normal;font-size:133.333px;line-height:1.25;font-family:Pacifico;-inkscape-font-specification:'Pacifico, Normal';font-variant-ligatures:normal;font-variant-caps:normal;font-variant-numeric:normal;font-variant-east-asian:normal;white-space:pre;shape-inside:url(#rect2937);fill:#ffffff;fill-opacity:1;stroke:none"
       transform="matrix(1.1264057,0,0,1.283275,-14.838512,32.994995)"><tspan
         x="-2.5488281"
         y="309.87288"
         id="tspan5703"><tspan
           dx="0 93.332939 66.933022 32.799698 52.399811 54.799759 52.399841 56.932922 64.133026 62.666443 49.066284"
           id="tspan5701">white-space</tspan></tspan></text>
  </g>
  <g
     aria-label="wiki"
     transform="translate(-8.6854636,34.229294)"
     id="text3662"
     style="font-size:40px;line-height:1.25;white-space:pre;shape-inside:url(#rect3664)">
    <path
       d="m 151.18953,97.210155 q 0.54,-0.18 1.8,-0.18 2.7,0 4.14,1.8 1.44,1.799995 1.44,4.859995 0,5.58 -2.16,8.82 -2.16,3.06 -6.48,4.5 -8.28,2.7 -17.64,2.7 -7.92,0 -14.94,-2.16 -5.22,8.46 -11.52,17.46 -7.199999,10.26 -12.419999,14.04 -5.04,3.78 -11.52,3.78 -7.2,0 -10.98,-5.58 -3.6,-5.58 -4.5,-18.36 l -0.9,-13.14 q -5.58,15.12 -10.08,23.04 -4.32,7.92 -8.82,10.98 -4.32,3.06 -10.26,3.06 -7.38,0 -11.7,-5.76 -4.14,-5.76 -5.22,-18.18 -2.16,-25.2 -2.16,-44.099995 v -6.3 q 0.18,-5.94 3.24,-8.28 3.06,-2.34 9.18,-2.34 4.68,0 6.84,2.16 2.34,1.98 2.34,6.84 0,20.7 2.52,53.819995 12.24,-25.74 22.5,-53.639995 1.98,-5.4 4.68,-7.2 2.88,-1.98 6.84,-1.98 4.86,0 6.66,1.98 1.98,1.98 1.98,7.02 0,20.7 2.52,53.819995 10.8,-16.02 16.199999,-25.56 -2.7,-5.219995 -2.7,-12.419995 0,-6.12 2.7,-11.88 2.7,-5.76 7.38,-9.36 4.68,-3.6 10.62,-3.6 5.22,0 8.46,3.78 3.24,3.6 3.24,10.62 0,8.1 -4.32,18.539995 6.84,-0.36 18.18,-2.699995 z"
       style="font-size:180px;font-family:Pacifico;-inkscape-font-specification:'Pacifico, Normal';fill:#ffffff"
       id="path5631" />
    <path
       d="m 166.48933,56.170155 q -7.56,0 -11.34,-3.42 -3.78,-3.6 -3.78,-9.9 0,-6.3 4.86,-10.44 5.04,-4.32 12.42,-4.32 6.66,0 10.8,3.24 4.14,3.24 4.14,9.18 0,7.2 -4.68,11.52 -4.68,4.14 -12.42,4.14 z m -1.44,96.659995 q -11.7,0 -17.1,-8.28 -5.22,-8.28 -5.22,-21.96 0,-8.1 1.98,-20.7 2.16,-12.779995 5.4,-23.759995 1.62,-5.76 4.32,-7.92 2.7,-2.16 8.64,-2.16 9.18,0 9.18,6.12 0,4.5 -3.42,20.88 -4.32,19.799995 -4.32,26.819995 0,5.4 1.44,8.28 1.44,2.88 4.86,2.88 3.24,0 8.1,-4.5 4.86,-4.5 12.96,-14.22 2.16,-2.52 4.86,-2.52 2.34,0 3.6,2.16 1.44,2.16 1.44,5.94 0,7.2 -3.42,11.16 -17.82,21.78 -33.3,21.78 z"
       style="font-size:180px;font-family:Pacifico;-inkscape-font-specification:'Pacifico, Normal';fill:#ffffff"
       id="path5628" />
    <path
       d="m 291.22904,111.79015 q 2.34,0 3.6,2.16 1.44,2.16 1.44,5.94 0,7.2 -3.42,11.16 -8.1,9.9 -16.38,15.84 -8.28,5.94 -19.62,5.94 -13.86,0 -22.32,-7.92 -8.46,-7.92 -8.46,-21.06 0,-7.02 7.2,-10.08 7.92,-3.42 11.34,-7.2 3.42,-3.96 3.42,-9.539995 0,-3.24 -1.44,-4.86 -1.26,-1.62 -3.24,-1.62 -4.86,0 -10.8,7.02 -5.76,7.019995 -10.8,18.179995 -5.04,10.98 -7.92,22.68 -1.98,8.46 -4.68,11.52 -2.52,2.88 -8.1,2.88 -5.58,0 -8.28,-3.96 -2.52,-4.14 -3.42,-12.6 -0.9,-8.46 -0.9,-24.84 0,-27.719995 5.58,-57.779995 5.76,-30.06 16.74,-50.4000004 11.16,-20.5199996 26.64,-20.5199996 8.28,0 13.32,7.2 5.22,7.0199996 5.22,18.3599996 0,18.1800004 -10.62,37.8000004 -10.62,19.44 -34.56,45.54 -0.54,9.359995 -0.54,19.259995 8.64,-22.499995 19.8,-32.579995 11.16,-10.26 20.88,-10.26 9,0 14.4,6.12 5.58,6.12 5.58,15.12 0,9.9 -5.04,18.179995 -5.04,8.28 -17.28,14.76 0.72,4.86 4.32,7.92 3.78,2.88 9,2.88 5.58,0 10.8,-4.32 5.22,-4.32 13.68,-14.4 2.16,-2.52 4.86,-2.52 z m -57.6,-111.23999535 q -3.24,0 -7.2,9.35999995 -3.96,9.1800004 -7.74,25.0200004 -3.6,15.66 -5.94,34.2 11.16,-13.14 18.36,-28.62 7.38,-15.48 7.38,-28.08 0,-5.7600004 -1.26,-8.8200004 -1.26,-3.05999995 -3.6,-3.05999995 z"
       style="font-size:180px;font-family:Pacifico;-inkscape-font-specification:'Pacifico, Normal';fill:#ffffff"
       id="path5625" />
    <path
       d="m 306.52895,56.170155 q -7.56,0 -11.34,-3.42 -3.78,-3.6 -3.78,-9.9 0,-6.3 4.86,-10.44 5.04,-4.32 12.42,-4.32 6.66,0 10.8,3.24 4.14,3.24 4.14,9.18 0,7.2 -4.68,11.52 -4.68,4.14 -12.42,4.14 z m -17.28,96.659995 q -5.76,0 -7.92,-2.34 -2.16,-2.34 -2.16,-7.38 0,-1.44 0.36,-5.04 2.88,-32.94 9.54,-59.939995 1.44,-5.58 4.68,-7.74 3.42,-2.34 10.8,-2.34 7.74,0 7.74,6.3 0,0.9 -0.36,3.42 -8.1,38.519995 -9.72,64.619995 -0.36,5.76 -3.42,8.1 -3.06,2.34 -9.54,2.34 z"
       style="font-size:180px;font-family:Pacifico;-inkscape-font-specification:'Pacifico, Normal';fill:#ffffff"
       id="path5622" />
  </g>
</svg>
